<?xml version="1.0" encoding="UTF-8" standalone="no"?>
<!DOCTYPE svg PUBLIC "-//W3C//DTD SVG 1.1//EN" "http://www.w3.org/Graphics/SVG/1.1/DTD/svg11.dtd">
<svg width="100%" height="100%" viewBox="0 0 1342 526" version="1.1" xmlns="http://www.w3.org/2000/svg" xmlns:xlink="http://www.w3.org/1999/xlink" xml:space="preserve" xmlns:serif="http://www.serif.com/" style="fill-rule:evenodd;clip-rule:evenodd;stroke-linejoin:round;stroke-miterlimit:2;">
    <g transform="matrix(1,0,0,1,24.5001,25.5)">
        <path d="M975.5,-0.5L979.5,-0.5C984.627,1.285 989.96,2.785 995.5,4C1070.5,4.667 1145.5,4.667 1220.5,4C1226.04,2.785 1231.37,1.285 1236.5,-0.5L1240.5,-0.5C1240.83,22.843 1240.5,46.176 1239.5,69.5C1228.64,56.478 1217.98,43.311 1207.5,30C1191.17,29.5 1174.84,29.333 1158.5,29.5L1158.5,100.5C1203.23,107.4 1247.9,114.733 1292.5,122.5C1292.29,123.086 1291.96,123.586 1291.5,124C1247.16,131.215 1202.83,138.382 1158.5,145.5C1158.33,166.169 1158.5,186.836 1159,207.5C1172.82,218.319 1186.32,229.486 1199.5,241C1140.5,240.333 1081.5,240.333 1022.5,241C1035.68,229.486 1049.18,218.319 1063,207.5C1063.67,185.5 1063.67,163.5 1063,141.5C1055.19,135.683 1047.69,129.517 1040.5,123C1047.69,116.483 1055.19,110.317 1063,104.5C1063.5,79.502 1063.67,54.502 1063.5,29.5C1045.16,29.333 1026.83,29.5 1008.5,30C998.023,43.311 987.356,56.478 976.5,69.5C975.5,46.176 975.167,22.843 975.5,-0.5ZM93.5,4.5C152.501,4.333 211.501,4.5 270.5,5C257.277,16.525 243.777,27.691 230,38.5C229.333,68.833 229.333,99.167 230,129.5L321.5,38C307.851,27.348 294.517,16.348 281.5,5C362.166,4.5 442.833,4.333 523.5,4.5C523.333,56.168 523.5,107.834 524,159.5C525.427,178.781 531.427,196.447 542,212.5C559.391,232.897 577.391,233.564 596,214.5C608.198,197.912 614.865,179.245 616,158.5C616.5,107.168 616.667,55.834 616.5,4.5C718.502,4.167 820.502,4.5 922.5,5.5C909.503,16.326 896.336,26.993 883,37.5C882.333,59.833 882.333,82.167 883,104.5L905.5,123L883,141.5C882.5,166.498 882.333,191.498 882.5,216.5C918.834,217.414 946.667,202.414 966,171.5C981.645,137.679 976.978,107.012 952,79.5C951.312,78.668 951.479,78.002 952.5,77.5C994.006,98.132 1015.67,131.799 1017.5,178.5C1017.46,200.787 1011.46,221.287 999.5,240C915.46,240.169 831.46,240.669 747.5,241.5C746.718,239.671 747.384,238.171 749.5,237L787,207.5C787.667,185.833 787.667,164.167 787,142.5L763.5,123L787,103.5C787.667,81.833 787.667,60.167 787,38.5C774.591,28.38 762.091,18.38 749.5,8.5C736.909,18.38 724.409,28.38 712,38.5C711.333,60.5 711.333,82.5 712,104.5C719.672,110.675 727.172,117.008 734.5,123.5C726.856,129.31 719.356,135.31 712,141.5C709.15,172.702 695.65,198.202 671.5,218C647.47,237.007 620.136,248.34 589.5,252C583.111,259.958 576.611,267.791 570,275.5C562.912,268.16 556.412,260.327 550.5,252C506.652,247.007 471.485,227.173 445,192.5C434.958,177.042 429.292,160.042 428,141.5C420.192,135.683 412.692,129.517 405.5,123C412.692,116.483 420.192,110.317 428,104.5C428.667,82.5 428.667,60.5 428,38.5L394,10.5C376.591,24.454 359.091,38.287 341.5,52L283.5,110C312.498,110.5 341.498,110.667 370.5,110.5C370.476,162.294 387.809,207.127 422.5,245C447.188,269.342 476.855,283.509 511.5,287.5C446.723,302.698 388.389,288.864 336.5,246C299.023,211.874 278.523,169.374 275,118.5L230,163.5C229.333,178.167 229.333,192.833 230,207.5C243.816,218.319 257.316,229.486 270.5,241C211.871,240.171 153.205,240.338 94.5,241.5C93.289,240.726 93.289,239.893 94.5,239L134,207.5C134.5,186.836 134.667,166.169 134.5,145.5C90.142,138.552 45.809,131.385 1.5,124C1.043,123.586 0.709,123.086 0.5,122.5C45.096,114.701 89.763,107.367 134.5,100.5C134.667,79.831 134.5,59.164 134,38.5L94.5,7C93.748,6.329 93.414,5.496 93.5,4.5Z" style="fill:rgb(247,243,232);fill-opacity:0.97;"/>
    </g>
    <g transform="matrix(1.50314,0,0,1.50314,-71.8436,-239.106)">
        <g transform="matrix(83.8243,0,0,83.8243,817.964,461.937)">
        </g>
        <text x="170.422px" y="461.937px" style="font-family:'InfidelCW00-C', 'Infidel C W00 C';font-weight:700;font-size:83.824px;fill:rgb(165,20,19);">◊ divinit<tspan x="510.664px " y="461.937px ">y</tspan> los<tspan x="706.897px " y="461.937px ">t</tspan> ◊</text>
    </g>
</svg>
